# xmcd
#
# Track frame offsets:
#	150
#	14137
#	32632
#	45997
#	60035
#	86397
#	100492
#	117867
#	132547
#	152497
#
# Disc length: 2188 seconds
#
# Revision: 3
# Processed by: cddbd v1.5.2PL0 Copyright (c) Steve Scherf et al.
# Submitted via: audiograbber 1.83.01
#
DISCID=74088a0a
DTITLE=Various Artist - In The Rain - Blues Box 4
DYEAR=2000
DGENRE=Blues
TTITLE0=Nina Simone - Gin House Blues
TTITLE1=Lena Horne - Unlucky Woman
TTITLE2=Nina Simone - Cotton-Eyed Joe
TTITLE3=Ella Fitzgerald - A Little Bit Later On
TTITLE4=Lena Horne - Frankie And Johnny
TTITLE5=Billie Holiday - They Can't Take That Away From Me
TTITLE6=Nina Simone - Forbidden Fruit
TTITLE7=Ella Fitzgerald - Starlit Hour
TTITLE8=Etta James - Drowning In My Own Tears
TTITLE9=Billie Holiday - Billie's Blues
EXTD=
EXTT0=
EXTT1=
EXTT2=
EXTT3=
EXTT4=
EXTT5=
EXTT6=
EXTT7=
EXTT8=
EXTT9=
PLAYORDER=
